<svg xmlns="http://www.w3.org/2000/svg" viewBox="0 0 100 100">
  <path d="M 12,18 C 30,10 70,12 88,14 C 92,35 88,70 85,88 C 65,92 25,88 15,85 C 8,65 10,25 12,18 Z" fill="#ffffff" stroke="#1a1a1a" stroke-width="7" stroke-linejoin="round" stroke-linecap="round"/>
  <g transform="translate(50, 50) rotate(-15) translate(-50, -50)">
    <g transform="translate(24, 24) scale(2.2)">
      <path d="M17.8 19.2 16 11l3.5-3.5C21 6 21.5 4 21 3c-1-.5-3 0-4.5 1.5L13 8 4.8 6.2c-.5-.1-.9.2-1.1.5l-1.5 1.5c-.5.5-.4 1.2.3 1.5l8.5 3.5-4 4-2.8-.8c-.4-.1-.8.1-1.1.4L1 18.5c-.3.3-.2.8.2 1l2.8 1.4L5.4 23c.2.4.7.5 1 .2l1.7-1.7c.3-.3.5-.7.4-1.1l-.8-2.8 4-4 3.5 8.5c.3.7 1 .8 1.5.3l1.5-1.5c.3-.2.6-.6.5-1.1z" fill="none" stroke="#1a1a1a" stroke-width="1.5" stroke-linecap="round" stroke-linejoin="round"/>
    </g>
  </g>
</svg>
